<?xml version="1.0" encoding="UTF-8" standalone="no"?>
<!-- Created with Inkscape (http://www.inkscape.org/) -->

<svg
   version="1.1"
   id="svg1"
   width="800"
   height="800"
   viewBox="0 0 800 800"
   sodipodi:docname="Fibree-Community-Green-Kreis-01.svg"
   inkscape:version="1.4.2 (f4327f4, 2025-05-13)"
   xmlns:inkscape="http://www.inkscape.org/namespaces/inkscape"
   xmlns:sodipodi="http://sodipodi.sourceforge.net/DTD/sodipodi-0.dtd"
   xmlns="http://www.w3.org/2000/svg"
   xmlns:svg="http://www.w3.org/2000/svg">
  <defs
     id="defs1" />
  <sodipodi:namedview
     id="namedview1"
     pagecolor="#ffffff"
     bordercolor="#000000"
     borderopacity="0.25"
     inkscape:showpageshadow="2"
     inkscape:pageopacity="0.0"
     inkscape:pagecheckerboard="0"
     inkscape:deskcolor="#d1d1d1"
     inkscape:zoom="1.00875"
     inkscape:cx="400"
     inkscape:cy="400"
     inkscape:window-width="1920"
     inkscape:window-height="1009"
     inkscape:window-x="-8"
     inkscape:window-y="-8"
     inkscape:window-maximized="1"
     inkscape:current-layer="g1" />
  <g
     inkscape:groupmode="layer"
     inkscape:label="Image"
     id="g1">
    <g
       id="g2"
       transform="translate(0.99132884,2.9739775)"
       style="fill:#2430b2;fill-opacity:1">
      <path
         style="fill:#2430b2;fill-opacity:1"
         d="m 139.43836,679.2 c -0.79607,-1.01508 -0.77344,-1.03771 0.24164,-0.24164 1.06608,0.83608 1.40511,1.36164 0.87836,1.36164 -0.13289,0 -0.63689,-0.504 -1.12,-1.12 z M 659.2,680.07836 c 0,-0.13289 0.504,-0.63689 1.12,-1.12 1.01508,-0.79607 1.03771,-0.77344 0.24164,0.24164 -0.83608,1.06608 -1.36164,1.40511 -1.36164,0.87836 z M 120.23836,660 c -0.79607,-1.01508 -0.77344,-1.03771 0.24164,-0.24164 1.06608,0.83608 1.40511,1.36164 0.87836,1.36164 -0.13289,0 -0.63689,-0.504 -1.12,-1.12 z m 42.88,0 c -0.79607,-1.01508 -0.77344,-1.03771 0.24164,-0.24164 0.616,0.48311 1.12,0.98711 1.12,1.12 0,0.52675 -0.52556,0.18772 -1.36164,-0.87836 z M 635.52,660.87836 c 0,-0.13289 0.504,-0.63689 1.12,-1.12 1.01508,-0.79607 1.03771,-0.77344 0.24164,0.24164 -0.83608,1.06608 -1.36164,1.40511 -1.36164,0.87836 z m 42.88,0 c 0,-0.13289 0.504,-0.63689 1.12,-1.12 1.01508,-0.79607 1.03771,-0.77344 0.24164,0.24164 -0.83608,1.06608 -1.36164,1.40511 -1.36164,0.87836 z M 139.43836,636.32 c -0.79607,-1.01508 -0.77344,-1.03771 0.24164,-0.24164 0.616,0.48311 1.12,0.98711 1.12,1.12 0,0.52675 -0.52556,0.18772 -1.36164,-0.87836 z M 659.2,637.19836 c 0,-0.13289 0.504,-0.63689 1.12,-1.12 1.01508,-0.79607 1.03771,-0.77344 0.24164,0.24164 -0.83608,1.06608 -1.36164,1.40511 -1.36164,0.87836 z m -388.48,-181.12 c 0,-0.13289 0.504,-0.63689 1.12,-1.12 1.01508,-0.79607 1.03771,-0.77344 0.24164,0.24164 -0.83608,1.06608 -1.36164,1.40511 -1.36164,0.87836 z M 527.91836,455.2 c -0.79607,-1.01508 -0.77344,-1.03771 0.24164,-0.24164 0.616,0.48311 1.12,0.98711 1.12,1.12 0,0.52675 -0.52556,0.18772 -1.36164,-0.87836 z M 227.89053,421.38667 c 0.0307,-0.74557 0.18236,-0.89722 0.38666,-0.38667 0.18488,0.462 0.16214,1.014 -0.0505,1.22667 -0.21267,0.21266 -0.36393,-0.16534 -0.33614,-0.84 z m 343.68,0 c 0.0307,-0.74557 0.18236,-0.89722 0.38666,-0.38667 0.18488,0.462 0.16214,1.014 -0.0505,1.22667 -0.21267,0.21266 -0.36393,-0.16534 -0.33614,-0.84 z M 138.88,164.23836 c 0,-0.13289 0.504,-0.63689 1.12,-1.12 1.01508,-0.79607 1.03771,-0.77344 0.24164,0.24164 -0.83608,1.06608 -1.36164,1.40511 -1.36164,0.87836 z m -19.2,-23.68 c 0,-0.13289 0.504,-0.63689 1.12,-1.12 1.01508,-0.79607 1.03771,-0.77344 0.24164,0.24164 -0.83608,1.06608 -1.36164,1.40511 -1.36164,0.87836 z m 42.88,0 c 0,-0.13289 0.504,-0.63689 1.12,-1.12 1.01508,-0.79607 1.03771,-0.77344 0.24164,0.24164 -0.83608,1.06608 -1.36164,1.40511 -1.36164,0.87836 z m -23.68,-19.2 c 0,-0.13289 0.504,-0.63689 1.12,-1.12 1.01508,-0.79607 1.03771,-0.77344 0.24164,0.24164 -0.83608,1.06608 -1.36164,1.40511 -1.36164,0.87836 z"
         id="path4" />
      <path
         style="fill:#2430b2;fill-opacity:1"
         d="m 379.69218,780.99649 c 0.6227,-0.16227 1.4867,-0.1516 1.92,0.0237 0.4333,0.17531 -0.0762,0.30808 -1.13218,0.29503 -1.056,-0.013 -1.41052,-0.15648 -0.78782,-0.31874 z m 39.04,0 c 0.6227,-0.16227 1.4867,-0.1516 1.92,0.0237 0.4333,0.17531 -0.0762,0.30808 -1.13218,0.29503 -1.056,-0.013 -1.41052,-0.15648 -0.78782,-0.31874 z M 369.8,780.36281 c 0.462,-0.18488 1.014,-0.16214 1.22667,0.0505 0.21266,0.21267 -0.16534,0.36393 -0.84,0.33614 -0.74557,-0.0307 -0.89722,-0.18236 -0.38667,-0.38666 z m 59.52,0 c 0.462,-0.18488 1.014,-0.16214 1.22667,0.0505 0.21266,0.21267 -0.16534,0.36393 -0.84,0.33614 -0.74557,-0.0307 -0.89722,-0.18236 -0.38667,-0.38666 z M 395.36,751.5248 c 2.552,-0.12148 6.728,-0.12148 9.28,0 2.552,0.12148 0.464,0.22087 -4.64,0.22087 -5.104,0 -7.192,-0.0994 -4.64,-0.22087 z m -17.92,-0.58866 c 0.44,-0.17754 1.16,-0.17754 1.6,0 0.44,0.17754 0.08,0.32281 -0.8,0.32281 -0.88,0 -1.24,-0.14527 -0.8,-0.32281 z m 43.52,0 c 0.44,-0.17754 1.16,-0.17754 1.6,0 0.44,0.17754 0.08,0.32281 -0.8,0.32281 -0.88,0 -1.24,-0.14527 -0.8,-0.32281 z m -51.8,-0.65333 c 0.462,-0.18488 1.014,-0.16214 1.22667,0.0505 0.21266,0.21267 -0.16534,0.36393 -0.84,0.33614 -0.74557,-0.0307 -0.89722,-0.18236 -0.38667,-0.38666 z m 60.8,0 c 0.462,-0.18488 1.014,-0.16214 1.22667,0.0505 0.21266,0.21267 -0.16534,0.36393 -0.84,0.33614 -0.74557,-0.0307 -0.89722,-0.18236 -0.38667,-0.38666 z M 145.19836,684.32 c -0.79607,-1.01508 -0.77344,-1.03771 0.24164,-0.24164 1.06608,0.83608 1.40511,1.36164 0.87836,1.36164 -0.13289,0 -0.63689,-0.504 -1.12,-1.12 z M 653.44,685.19836 c 0,-0.13289 0.504,-0.63689 1.12,-1.12 1.01508,-0.79607 1.03771,-0.77344 0.24164,0.24164 -0.83608,1.06608 -1.36164,1.40511 -1.36164,0.87836 z M 137.21919,676.96 136,675.52 l 1.44,1.21919 c 1.35324,1.14574 1.73135,1.66081 1.21919,1.66081 -0.12144,0 -0.76944,-0.648 -1.44,-1.44 z M 662.08,677.12 c 0.63711,-0.704 1.30238,-1.28 1.47838,-1.28 0.176,0 -0.20127,0.576 -0.83838,1.28 -0.63711,0.704 -1.30238,1.28 -1.47838,1.28 -0.176,0 0.20127,-0.576 0.83838,-1.28 z M 122.49919,662.24 121.28,660.8 l 1.44,1.21919 c 0.792,0.67056 1.44,1.31856 1.44,1.44 0,0.51216 -0.51507,0.13405 -1.66081,-1.21919 z M 676.8,662.4 c 0.63711,-0.704 1.30238,-1.28 1.47838,-1.28 0.176,0 -0.20127,0.576 -0.83838,1.28 -0.63711,0.704 -1.30238,1.28 -1.47838,1.28 -0.176,0 0.20127,-0.576 0.83838,-1.28 z m -561.68164,-8.16 c -0.79607,-1.01508 -0.77344,-1.03771 0.24164,-0.24164 1.06608,0.83608 1.40511,1.36164 0.87836,1.36164 -0.13289,0 -0.63689,-0.504 -1.12,-1.12 z M 683.52,655.11836 c 0,-0.13289 0.504,-0.63689 1.12,-1.12 1.01508,-0.79607 1.03771,-0.77344 0.24164,0.24164 -0.83608,1.06608 -1.36164,1.40511 -1.36164,0.87836 z M 151.02736,648.48 144.96,642.24 l 6.24,6.06736 c 5.79565,5.6353 6.53113,6.41264 6.06736,6.41264 -0.0949,0 -2.90295,-2.808 -6.24,-6.24 z M 648.32,648.64 c 3.3301,-3.344 6.19872,-6.08 6.37472,-6.08 0.176,0 -2.40462,2.736 -5.73472,6.08 -3.3301,3.344 -6.19872,6.08 -6.37472,6.08 -0.176,0 2.40462,-2.736 5.73472,-6.08 z M 322.56,569.28 c 0.82672,-0.88 1.64712,-1.6 1.82312,-1.6 0.176,0 -0.3564,0.72 -1.18312,1.6 -0.82672,0.88 -1.64712,1.6 -1.82312,1.6 -0.176,0 0.3564,-0.72 1.18312,-1.6 z m 154.19156,-0.16 -1.55156,-1.76 1.76,1.55156 c 1.64499,1.45017 2.0535,1.96844 1.55156,1.96844 -0.11464,0 -0.90664,-0.792 -1.76,-1.76 z m -149.56308,-10.4 c 0,-1.232 0.13171,-1.736 0.29269,-1.12 0.16098,0.616 0.16098,1.624 0,2.24 -0.16098,0.616 -0.29269,0.112 -0.29269,-1.12 z m 145.28,0 c 0,-1.232 0.13171,-1.736 0.29269,-1.12 0.16098,0.616 0.16098,1.624 0,2.24 -0.16098,0.616 -0.29269,0.112 -0.29269,-1.12 z m -316.16,-7.04 c 0,-1.232 0.13171,-1.736 0.29269,-1.12 0.16098,0.616 0.16098,1.624 0,2.24 -0.16098,0.616 -0.29269,0.112 -0.29269,-1.12 z m 487.04,0 c 0,-1.232 0.13171,-1.736 0.29269,-1.12 0.16098,0.616 0.16098,1.624 0,2.24 -0.16098,0.616 -0.29269,0.112 -0.29269,-1.12 z m -316.84743,-6.4 c 0,-0.88 0.14527,-1.24 0.32281,-0.8 0.17754,0.44 0.17754,1.16 0,1.6 -0.17754,0.44 -0.32281,0.08 -0.32281,-0.8 z m 146.56,0 c 0,-0.88 0.14527,-1.24 0.32281,-0.8 0.17754,0.44 0.17754,1.16 0,1.6 -0.17754,0.44 -0.32281,0.08 -0.32281,-0.8 z m -176.64,-1.92 c 0,-0.88 0.14527,-1.24 0.32281,-0.8 0.17754,0.44 0.17754,1.16 0,1.6 -0.17754,0.44 -0.32281,0.08 -0.32281,-0.8 z m 206.72,0 c 0,-0.88 0.14527,-1.24 0.32281,-0.8 0.17754,0.44 0.17754,1.16 0,1.6 -0.17754,0.44 -0.32281,0.08 -0.32281,-0.8 z m -346.29052,-4.21333 c 0.0307,-0.74557 0.18236,-0.89722 0.38666,-0.38667 0.18488,0.462 0.16214,1.014 -0.0505,1.22667 -0.21267,0.21266 -0.36393,-0.16534 -0.33614,-0.84 z m 485.76,0 c 0.0307,-0.74557 0.18236,-0.89722 0.38666,-0.38667 0.18488,0.462 0.16214,1.014 -0.0505,1.22667 -0.21267,0.21266 -0.36393,-0.16534 -0.33614,-0.84 z m -455.68,-1.28 c 0.0307,-0.74557 0.18236,-0.89722 0.38666,-0.38667 0.18488,0.462 0.16214,1.014 -0.0505,1.22667 -0.21267,0.21266 -0.36393,-0.16534 -0.33614,-0.84 z m 425.6,0 c 0.0307,-0.74557 0.18236,-0.89722 0.38666,-0.38667 0.18488,0.462 0.16214,1.014 -0.0505,1.22667 -0.21267,0.21266 -0.36393,-0.16534 -0.33614,-0.84 z m -286.72,-2.56 c 0.0307,-0.74557 0.18236,-0.89722 0.38666,-0.38667 0.18488,0.462 0.16214,1.014 -0.0505,1.22667 -0.21267,0.21266 -0.36393,-0.16534 -0.33614,-0.84 z m 147.84,0 c 0.0307,-0.74557 0.18236,-0.89722 0.38666,-0.38667 0.18488,0.462 0.16214,1.014 -0.0505,1.22667 -0.21267,0.21266 -0.36393,-0.16534 -0.33614,-0.84 z m -177.92,-1.28 c 0.0307,-0.74557 0.18236,-0.89722 0.38666,-0.38667 0.18488,0.462 0.16214,1.014 -0.0505,1.22667 -0.21267,0.21266 -0.36393,-0.16534 -0.33614,-0.84 z m 208,0 c 0.0307,-0.74557 0.18236,-0.89722 0.38666,-0.38667 0.18488,0.462 0.16214,1.014 -0.0505,1.22667 -0.21267,0.21266 -0.36393,-0.16534 -0.33614,-0.84 z m -346.24,-3.2 c 0.0307,-0.74557 0.18236,-0.89722 0.38666,-0.38667 0.18488,0.462 0.16214,1.014 -0.0505,1.22667 -0.21267,0.21266 -0.36393,-0.16534 -0.33614,-0.84 z m 484.48,0 c 0.0307,-0.74557 0.18236,-0.89722 0.38666,-0.38667 0.18488,0.462 0.16214,1.014 -0.0505,1.22667 -0.21267,0.21266 -0.36393,-0.16534 -0.33614,-0.84 z m -346.88,-3.84 c 0.0307,-0.74557 0.18236,-0.89722 0.38666,-0.38667 0.18488,0.462 0.16214,1.014 -0.0505,1.22667 -0.21267,0.21266 -0.36393,-0.16534 -0.33614,-0.84 z m 209.28,0 c 0.0307,-0.74557 0.18236,-0.89722 0.38666,-0.38667 0.18488,0.462 0.16214,1.014 -0.0505,1.22667 -0.21267,0.21266 -0.36393,-0.16534 -0.33614,-0.84 z m -346.24,-3.2 c 0.0307,-0.74557 0.18236,-0.89722 0.38666,-0.38667 0.18488,0.462 0.16214,1.014 -0.0505,1.22667 -0.21267,0.21266 -0.36393,-0.16534 -0.33614,-0.84 z m 483.2,0 c 0.0307,-0.74557 0.18236,-0.89722 0.38666,-0.38667 0.18488,0.462 0.16214,1.014 -0.0505,1.22667 -0.21267,0.21266 -0.36393,-0.16534 -0.33614,-0.84 z M 230.28,502.60281 c 0.462,-0.18488 1.014,-0.16214 1.22667,0.0505 0.21266,0.21267 -0.16534,0.36393 -0.84,0.33614 -0.74557,-0.0307 -0.89722,-0.18236 -0.38667,-0.38666 z m 21.72,0.0133 c 0.44,-0.17754 1.16,-0.17754 1.6,0 0.44,0.17754 0.08,0.32281 -0.8,0.32281 -0.88,0 -1.24,-0.14527 -0.8,-0.32281 z m 294.4,0 c 0.44,-0.17754 1.16,-0.17754 1.6,0 0.44,0.17754 0.08,0.32281 -0.8,0.32281 -0.88,0 -1.24,-0.14527 -0.8,-0.32281 z m 22.44,-0.0133 c 0.462,-0.18488 1.014,-0.16214 1.22667,0.0505 0.21266,0.21267 -0.16534,0.36393 -0.84,0.33614 -0.74557,-0.0307 -0.89722,-0.18236 -0.38667,-0.38666 z m -246.86947,-2.49614 c 0.0307,-0.74557 0.18236,-0.89722 0.38666,-0.38667 0.18488,0.462 0.16214,1.014 -0.0505,1.22667 -0.21267,0.21266 -0.36393,-0.16534 -0.33614,-0.84 z m 155.52,0 c 0.0307,-0.74557 0.18236,-0.89722 0.38666,-0.38667 0.18488,0.462 0.16214,1.014 -0.0505,1.22667 -0.21267,0.21266 -0.36393,-0.16534 -0.33614,-0.84 z M 317.35836,489.76 c -0.79607,-1.01508 -0.77344,-1.03771 0.24164,-0.24164 0.616,0.48311 1.12,0.98711 1.12,1.12 0,0.52675 -0.52556,0.18772 -1.36164,-0.87836 z M 481.28,490.63836 c 0,-0.13289 0.504,-0.63689 1.12,-1.12 1.01508,-0.79607 1.03771,-0.77344 0.24164,0.24164 -0.83608,1.06608 -1.36164,1.40511 -1.36164,0.87836 z m -222.2,-17.47555 c 0.462,-0.18488 1.014,-0.16214 1.22667,0.0505 0.21266,0.21267 -0.16534,0.36393 -0.84,0.33614 -0.74557,-0.0307 -0.89722,-0.18236 -0.38667,-0.38666 z m 66.68,0.19555 c 0,-0.13289 0.504,-0.63689 1.12,-1.12 1.01508,-0.79607 1.03771,-0.77344 0.24164,0.24164 -0.83608,1.06608 -1.36164,1.40511 -1.36164,0.87836 z M 472.57919,472.16 471.36,470.72 l 1.44,1.21919 c 1.35324,1.14574 1.73135,1.66081 1.21919,1.66081 -0.12144,0 -0.76944,-0.648 -1.44,-1.44 z m 67.46081,1.00281 c 0.462,-0.18488 1.014,-0.16214 1.22667,0.0505 0.21266,0.21267 -0.16534,0.36393 -0.84,0.33614 -0.74557,-0.0307 -0.89722,-0.18236 -0.38667,-0.38666 z m -308.18782,-0.64632 c 0.6227,-0.16227 1.4867,-0.1516 1.92,0.0237 0.4333,0.17531 -0.0762,0.30808 -1.13218,0.29503 -1.056,-0.013 -1.41052,-0.15648 -0.78782,-0.31874 z m 18.22782,0.0197 c 0.44,-0.17754 1.16,-0.17754 1.6,0 0.44,0.17754 0.08,0.32281 -0.8,0.32281 -0.88,0 -1.24,-0.14527 -0.8,-0.32281 z m 298.24,0 c 0.44,-0.17754 1.16,-0.17754 1.6,0 0.44,0.17754 0.08,0.32281 -0.8,0.32281 -0.88,0 -1.24,-0.14527 -0.8,-0.32281 z m 18.25218,-0.0197 c 0.6227,-0.16227 1.4867,-0.1516 1.92,0.0237 0.4333,0.17531 -0.0762,0.30808 -1.13218,0.29503 -1.056,-0.013 -1.41052,-0.15648 -0.78782,-0.31874 z M 245.64,466.76281 c 0.462,-0.18488 1.014,-0.16214 1.22667,0.0505 0.21266,0.21267 -0.16534,0.36393 -0.84,0.33614 -0.74557,-0.0307 -0.89722,-0.18236 -0.38667,-0.38666 z m 307.84,0 c 0.462,-0.18488 1.014,-0.16214 1.22667,0.0505 0.21266,0.21267 -0.16534,0.36393 -0.84,0.33614 -0.74557,-0.0307 -0.89722,-0.18236 -0.38667,-0.38666 z m -168.84024,-59.91451 0.31975,-32.1283 0.16635,31.6419 c 0.0915,17.40304 -0.0524,31.86078 -0.31976,32.1283 -0.26735,0.26752 -0.34221,-13.97133 -0.16634,-31.6419 z M 49.330526,430.34667 c 0.03071,-0.74557 0.182362,-0.89722 0.386667,-0.38667 0.184877,0.462 0.16214,1.014 -0.05053,1.22667 -0.212667,0.21266 -0.36393,-0.16534 -0.336141,-0.84 z m 700.800004,0 c 0.0307,-0.74557 0.18236,-0.89722 0.38666,-0.38667 0.18488,0.462 0.16214,1.014 -0.0505,1.22667 -0.21267,0.21266 -0.36393,-0.16534 -0.33614,-0.84 z m -730.880004,-0.64 c 0.03071,-0.74557 0.182362,-0.89722 0.386667,-0.38667 0.184877,0.462 0.16214,1.014 -0.05053,1.22667 -0.212667,0.21266 -0.36393,-0.16534 -0.336141,-0.84 z m 760.960004,0 c 0.0307,-0.74557 0.18236,-0.89722 0.38666,-0.38667 0.18488,0.462 0.16214,1.014 -0.0505,1.22667 -0.21267,0.21266 -0.36393,-0.16534 -0.33614,-0.84 z M 227.98848,424.32 c 0,-1.232 0.13171,-1.736 0.29269,-1.12 0.16098,0.616 0.16098,1.624 0,2.24 -0.16098,0.616 -0.29269,0.112 -0.29269,-1.12 z m 343.68,0 c 0,-1.232 0.13171,-1.736 0.29269,-1.12 0.16098,0.616 0.16098,1.624 0,2.24 -0.16098,0.616 -0.29269,0.112 -0.29269,-1.12 z M 48.741053,421.76 c 0,-0.88 0.145263,-1.24 0.322807,-0.8 0.177544,0.44 0.177544,1.16 0,1.6 -0.177544,0.44 -0.322807,0.08 -0.322807,-0.8 z m 702.079997,0 c 0,-0.88 0.14527,-1.24 0.32281,-0.8 0.17754,0.44 0.17754,1.16 0,1.6 -0.17754,0.44 -0.32281,0.08 -0.32281,-0.8 z M 197.99072,416 c 0,-3.344 0.10787,-4.712 0.23971,-3.04 0.13183,1.672 0.13183,4.408 0,6.08 -0.13184,1.672 -0.23971,0.304 -0.23971,-3.04 z m 403.83645,0.32 c -0.002,-3.168 0.10627,-4.54469 0.2405,-3.05931 0.13422,1.48538 0.13582,4.07738 0.004,5.76 -0.13227,1.68262 -0.24209,0.46731 -0.24404,-2.70069 z m -583.142403,3.2 c 0.01304,-1.056 0.156479,-1.41052 0.318747,-0.78782 0.162268,0.6227 0.151596,1.4867 -0.02371,1.92 -0.175311,0.4333 -0.308076,-0.0762 -0.295033,-1.13218 z m 762.240003,0 c 0.013,-1.056 0.15648,-1.41052 0.31874,-0.78782 0.16227,0.6227 0.1516,1.4867 -0.0237,1.92 -0.17531,0.4333 -0.30808,-0.0762 -0.29503,-1.13218 z m -552.93629,-11.2 c 0,-1.232 0.13171,-1.736 0.29269,-1.12 0.16098,0.616 0.16098,1.624 0,2.24 -0.16098,0.616 -0.29269,0.112 -0.29269,-1.12 z m 343.68,0 c 0,-1.232 0.13171,-1.736 0.29269,-1.12 0.16098,0.616 0.16098,1.624 0,2.24 -0.16098,0.616 -0.29269,0.112 -0.29269,-1.12 z M 48.254332,400 c 0,-5.104 0.09939,-7.192 0.220872,-4.64 0.12148,2.552 0.12148,6.728 0,9.28 -0.121479,2.552 -0.220872,0.464 -0.220872,-4.64 z m 703.359998,0 c 0,-5.104 0.0994,-7.192 0.22087,-4.64 0.12148,2.552 0.12148,6.728 0,9.28 -0.12148,2.552 -0.22087,0.464 -0.22087,-4.64 z M 18.684767,380.48 c 0.01304,-1.056 0.156479,-1.41052 0.318747,-0.78782 0.162268,0.6227 0.151596,1.4867 -0.02371,1.92 -0.175311,0.4333 -0.308076,-0.0762 -0.295033,-1.13218 z m 762.240003,0 c 0.013,-1.056 0.15648,-1.41052 0.31874,-0.78782 0.16227,0.6227 0.1516,1.4867 -0.0237,1.92 -0.17531,0.4333 -0.30808,-0.0762 -0.29503,-1.13218 z M 272.27974,378.08 270.4,376 l 2.08,1.87974 c 1.93885,1.75218 2.37418,2.28026 1.87974,2.28026 -0.11015,0 -1.04615,-0.936 -2.08,-2.08 z M 525.44,379.95974 c 0,-0.11015 0.936,-1.04615 2.08,-2.08 L 529.6,376 l -1.87974,2.08 c -1.75218,1.93885 -2.28026,2.37418 -2.28026,1.87974 z M 48.741053,378.24 c 0,-0.88 0.145263,-1.24 0.322807,-0.8 0.177544,0.44 0.177544,1.16 0,1.6 -0.177544,0.44 -0.322807,0.08 -0.322807,-0.8 z m 702.079997,0 c 0,-0.88 0.14527,-1.24 0.32281,-0.8 0.17754,0.44 0.17754,1.16 0,1.6 -0.17754,0.44 -0.32281,0.08 -0.32281,-0.8 z M 19.250526,370.18667 c 0.03071,-0.74557 0.182362,-0.89722 0.386667,-0.38667 0.184877,0.462 0.16214,1.014 -0.05053,1.22667 -0.212667,0.21266 -0.36393,-0.16534 -0.336141,-0.84 z m 760.960004,0 c 0.0307,-0.74557 0.18236,-0.89722 0.38666,-0.38667 0.18488,0.462 0.16214,1.014 -0.0505,1.22667 -0.21267,0.21266 -0.36393,-0.16534 -0.33614,-0.84 z m -730.880004,-0.64 c 0.03071,-0.74557 0.182362,-0.89722 0.386667,-0.38667 0.184877,0.462 0.16214,1.014 -0.05053,1.22667 -0.212667,0.21266 -0.36393,-0.16534 -0.336141,-0.84 z m 700.800004,0 c 0.0307,-0.74557 0.18236,-0.89722 0.38666,-0.38667 0.18488,0.462 0.16214,1.014 -0.0505,1.22667 -0.21267,0.21266 -0.36393,-0.16534 -0.33614,-0.84 z m 29.44,-6.4 c 0.0307,-0.74557 0.18236,-0.89722 0.38666,-0.38667 0.18488,0.462 0.16214,1.014 -0.0505,1.22667 -0.21267,0.21266 -0.36393,-0.16534 -0.33614,-0.84 z M 314.34105,320.64 c 0,-0.88 0.14527,-1.24 0.32281,-0.8 0.17754,0.44 0.17754,1.16 0,1.6 -0.17754,0.44 -0.32281,0.08 -0.32281,-0.8 z m 170.88,0 c 0,-0.88 0.14527,-1.24 0.32281,-0.8 0.17754,0.44 0.17754,1.16 0,1.6 -0.17754,0.44 -0.32281,0.08 -0.32281,-0.8 z m -170.24,-13.44 c 0,-0.88 0.14527,-1.24 0.32281,-0.8 0.17754,0.44 0.17754,1.16 0,1.6 -0.17754,0.44 -0.32281,0.08 -0.32281,-0.8 z m 169.6,0 c 0,-0.88 0.14527,-1.24 0.32281,-0.8 0.17754,0.44 0.17754,1.16 0,1.6 -0.17754,0.44 -0.32281,0.08 -0.32281,-0.8 z m -139.57052,-1.65333 c 0.0307,-0.74557 0.18236,-0.89722 0.38666,-0.38667 0.18488,0.462 0.16214,1.014 -0.0505,1.22667 -0.21267,0.21266 -0.36393,-0.16534 -0.33614,-0.84 z m 109.44,0 c 0.0307,-0.74557 0.18236,-0.89722 0.38666,-0.38667 0.18488,0.462 0.16214,1.014 -0.0505,1.22667 -0.21267,0.21266 -0.36393,-0.16534 -0.33614,-0.84 z m -138.88,-7.68 c 0.0307,-0.74557 0.18236,-0.89722 0.38666,-0.38667 0.18488,0.462 0.16214,1.014 -0.0505,1.22667 -0.21267,0.21266 -0.36393,-0.16534 -0.33614,-0.84 z m 168.32,0 c 0.0307,-0.74557 0.18236,-0.89722 0.38666,-0.38667 0.18488,0.462 0.16214,1.014 -0.0505,1.22667 -0.21267,0.21266 -0.36393,-0.16534 -0.33614,-0.84 z m -138.24,-0.64 c 0.0307,-0.74557 0.18236,-0.89722 0.38666,-0.38667 0.18488,0.462 0.16214,1.014 -0.0505,1.22667 -0.21267,0.21266 -0.36393,-0.16534 -0.33614,-0.84 z m 108.16,0 c 0.0307,-0.74557 0.18236,-0.89722 0.38666,-0.38667 0.18488,0.462 0.16214,1.014 -0.0505,1.22667 -0.21267,0.21266 -0.36393,-0.16534 -0.33614,-0.84 z M 387.72,267.72281 c 0.462,-0.18488 1.014,-0.16214 1.22667,0.0505 0.21266,0.21267 -0.16534,0.36393 -0.84,0.33614 -0.74557,-0.0307 -0.89722,-0.18236 -0.38667,-0.38666 z m 23.68,0 c 0.462,-0.18488 1.014,-0.16214 1.22667,0.0505 0.21266,0.21267 -0.16534,0.36393 -0.84,0.33614 -0.74557,-0.0307 -0.89722,-0.18236 -0.38667,-0.38666 z m -22.44,-30.06667 c 0.44,-0.17754 1.16,-0.17754 1.6,0 0.44,0.17754 0.08,0.32281 -0.8,0.32281 -0.88,0 -1.24,-0.14527 -0.8,-0.32281 z m 20.48,0 c 0.44,-0.17754 1.16,-0.17754 1.6,0 0.44,0.17754 0.08,0.32281 -0.8,0.32281 -0.88,0 -1.24,-0.14527 -0.8,-0.32281 z m -13.4,-5.77333 c 0.462,-0.18488 1.014,-0.16214 1.22667,0.0505 0.21266,0.21267 -0.16534,0.36393 -0.84,0.33614 -0.74557,-0.0307 -0.89722,-0.18236 -0.38667,-0.38666 z m 7.04,0 c 0.462,-0.18488 1.014,-0.16214 1.22667,0.0505 0.21266,0.21267 -0.16534,0.36393 -0.84,0.33614 -0.74557,-0.0307 -0.89722,-0.18236 -0.38667,-0.38666 z M 368.91974,219.36 367.04,217.28 l 2.08,1.87974 c 1.144,1.03385 2.08,1.96985 2.08,2.08 0,0.49444 -0.52808,0.0591 -2.28026,-1.87974 z M 428.8,221.23974 c 0,-0.11015 0.936,-1.04615 2.08,-2.08 l 2.08,-1.87974 -1.87974,2.08 c -1.75218,1.93885 -2.28026,2.37418 -2.28026,1.87974 z M 355.96477,188.48 c 0.013,-1.056 0.15648,-1.41052 0.31874,-0.78782 0.16227,0.6227 0.1516,1.4867 -0.0237,1.92 -0.17531,0.4333 -0.30808,-0.0762 -0.29503,-1.13218 z m 87.68,0 c 0.013,-1.056 0.15648,-1.41052 0.31874,-0.78782 0.16227,0.6227 0.1516,1.4867 -0.0237,1.92 -0.17531,0.4333 -0.30808,-0.0762 -0.29503,-1.13218 z m -57.49405,-7.36 c 0,-3.344 0.10787,-4.712 0.23971,-3.04 0.13183,1.672 0.13183,4.408 0,6.08 -0.13184,1.672 -0.23971,0.304 -0.23971,-3.04 z m 27.52,0 c 0,-3.344 0.10787,-4.712 0.23971,-3.04 0.13183,1.672 0.13183,4.408 0,6.08 -0.13184,1.672 -0.23971,0.304 -0.23971,-3.04 z m -57.72967,-7.04 c 0,-0.88 0.14527,-1.24 0.32281,-0.8 0.17754,0.44 0.17754,1.16 0,1.6 -0.17754,0.44 -0.32281,0.08 -0.32281,-0.8 z m 87.68,0 c 0,-0.88 0.14527,-1.24 0.32281,-0.8 0.17754,0.44 0.17754,1.16 0,1.6 -0.17754,0.44 -0.32281,0.08 -0.32281,-0.8 z M 151.04,151.36 c 3.3301,-3.344 6.19872,-6.08 6.37472,-6.08 0.176,0 -2.40462,2.736 -5.73472,6.08 -3.3301,3.344 -6.19872,6.08 -6.37472,6.08 -0.176,0 2.40462,-2.736 5.73472,-6.08 z m 517.76,2.63836 c 0,-0.13289 0.504,-0.63689 1.12,-1.12 1.01508,-0.79607 1.03771,-0.77344 0.24164,0.24164 -0.83608,1.06608 -1.36164,1.40511 -1.36164,0.87836 z m 11.4,-5.31555 c 0.462,-0.18488 1.014,-0.16214 1.22667,0.0505 0.21266,0.21267 -0.16534,0.36393 -0.84,0.33614 -0.74557,-0.0307 -0.89722,-0.18236 -0.38667,-0.38666 z M 122.56,137.6 c 0.63711,-0.704 1.30238,-1.28 1.47838,-1.28 0.176,0 -0.20127,0.576 -0.83838,1.28 -0.63711,0.704 -1.30238,1.28 -1.47838,1.28 -0.176,0 0.20127,-0.576 0.83838,-1.28 z m 523.2,-6.64164 c 0,-0.13289 0.504,-0.63689 1.12,-1.12 1.01508,-0.79607 1.03771,-0.77344 0.24164,0.24164 -0.83608,1.06608 -1.36164,1.40511 -1.36164,0.87836 z M 137.28,122.88 c 0.63711,-0.704 1.30238,-1.28 1.47838,-1.28 0.176,0 -0.20127,0.576 -0.83838,1.28 -0.63711,0.704 -1.30238,1.28 -1.47838,1.28 -0.176,0 0.20127,-0.576 0.83838,-1.28 z m 513.65053,-3.57333 c 0.0307,-0.74557 0.18236,-0.89722 0.38666,-0.38667 0.18488,0.462 0.16214,1.014 -0.0505,1.22667 -0.21267,0.21266 -0.36393,-0.16534 -0.33614,-0.84 z M 369.16,49.482807 c 0.462,-0.184877 1.014,-0.16214 1.22667,0.05053 0.21266,0.212667 -0.16534,0.36393 -0.84,0.336141 -0.74557,-0.03071 -0.89722,-0.182362 -0.38667,-0.386667 z m 60.8,0 c 0.462,-0.184877 1.014,-0.16214 1.22667,0.05053 0.21266,0.212667 -0.16534,0.36393 -0.84,0.336141 -0.74557,-0.03071 -0.89722,-0.182362 -0.38667,-0.386667 z M 377.44,48.85614 c 0.44,-0.177544 1.16,-0.177544 1.6,0 0.44,0.177544 0.08,0.322807 -0.8,0.322807 -0.88,0 -1.24,-0.145263 -0.8,-0.322807 z m 43.52,0 c 0.44,-0.177544 1.16,-0.177544 1.6,0 0.44,0.177544 0.08,0.322807 -0.8,0.322807 -0.88,0 -1.24,-0.145263 -0.8,-0.322807 z m -25.6,-0.691344 c 2.552,-0.12148 6.728,-0.12148 9.28,0 2.552,0.121479 0.464,0.220872 -4.64,0.220872 -5.104,0 -7.192,-0.09939 -4.64,-0.220872 z m 41,-28.121989 c 0.462,-0.184877 1.014,-0.16214 1.22667,0.05053 0.21266,0.212667 -0.16534,0.36393 -0.84,0.336141 -0.74557,-0.03071 -0.89722,-0.182362 -0.38667,-0.386667 z m -66.56,-0.64 c 0.462,-0.184877 1.014,-0.16214 1.22667,0.05053 0.21266,0.212667 -0.16534,0.36393 -0.84,0.336141 -0.74557,-0.03071 -0.89722,-0.182362 -0.38667,-0.386667 z m 59.52,0 c 0.462,-0.184877 1.014,-0.16214 1.22667,0.05053 0.21266,0.212667 -0.16534,0.36393 -0.84,0.336141 -0.74557,-0.03071 -0.89722,-0.182362 -0.38667,-0.386667 z m -49.62782,-0.646321 c 0.6227,-0.162268 1.4867,-0.151596 1.92,0.02371 0.4333,0.175311 -0.0762,0.308076 -1.13218,0.295033 -1.056,-0.01304 -1.41052,-0.156479 -0.78782,-0.318747 z m 39.04,0 c 0.6227,-0.162268 1.4867,-0.151596 1.92,0.02371 0.4333,0.175311 -0.0762,0.308076 -1.13218,0.295033 -1.056,-0.01304 -1.41052,-0.156479 -0.78782,-0.318747 z"
         id="path3" />
      <path
         style="fill:#2430b2;fill-opacity:1"
         d="M 374.72,780.74508 C 263.58879,773.36961 160.96296,717.56005 94.216,628.20254 70.689079,596.70587 51.32071,559.92621 38.715715,522.81001 14.418702,451.26592 11.957901,372.41132 31.757531,299.84 42.585875,260.15101 61.561445,218.9271 84.342768,185.6 139.19269,105.35931 221.63651,49.155138 315.84,27.782095 c 44.24609,-10.038624 93.07323,-11.915668 138.88,-5.338911 67.53506,9.696418 131.47164,37.639977 185.37187,81.016996 6.01031,4.83689 7.82926,6.69345 9.14532,9.33445 5.90906,11.85795 -4.88735,24.68573 -17.57677,20.88389 -1.32445,-0.39681 -5.10186,-2.88074 -8.39425,-5.51983 C 607.74637,115.71844 595.98541,107.44728 581.17124,98.554491 514.50692,58.536621 436.97461,41.724981 359.77765,50.548839 312.32693,55.972606 266.56594,70.990267 225.22573,94.705561 171.23962,125.67532 125.67532,171.23962 94.705561,225.22573 41.462168,318.03896 33.566718,430.44498 73.258743,530.56 c 4.698454,11.85089 14.648017,32.36268 21.446818,44.21427 30.969759,53.98611 76.534059,99.55041 130.520169,130.52017 39.41132,22.60876 84.66695,37.86369 129.01427,43.48858 17.12939,2.17265 27.19023,2.78495 45.76,2.78495 18.56977,0 28.63061,-0.6123 45.76,-2.78495 59.09264,-7.49515 117.38209,-31.28747 165.31485,-67.47746 38.71599,-29.23119 70.47523,-65.14042 94.21959,-106.53129 55.52481,-96.79017 61.58788,-214.38864 16.3495,-317.1123 C 709.10749,229.19521 693.28978,203.49181 671.84131,176.73383 667.04242,170.747 665.6,167.76711 665.6,163.84 c 0,-5.41497 3.75333,-11.30951 8.60428,-13.51288 3.84476,-1.74634 8.96678,-1.57469 13.00109,0.43569 2.641,1.31606 4.49756,3.13501 9.33445,9.14532 43.37702,53.90023 71.32058,117.83681 81.017,185.37187 4.63599,32.28948 5.09871,67.7807 1.30166,99.84 -6.97489,58.89055 -27.68909,115.46316 -60.47467,165.16254 -37.06354,56.18431 -88.07392,101.23706 -148.79127,131.41358 -45.97808,22.8511 -93.99517,35.74134 -145.58162,39.08155 -11.57249,0.74932 -37.77037,0.73199 -49.29092,-0.0326 z M 238.02667,589.1826 c -0.14667,-0.14158 -16.30905,-3.88753 -35.91639,-8.32433 -19.60735,-4.43681 -36.32759,-8.32465 -37.15608,-8.63964 -2.44991,-0.93146 -5.55006,-3.87221 -7.06226,-6.69914 -1.30119,-2.43245 -1.39934,-3.39252 -1.25127,-12.23949 0.19393,-11.58673 1.61813,-29.04762 3.69077,-45.24928 2.37152,-18.53798 2.64816,-18.86866 21.10856,-25.2309 41.89482,-14.43874 85.88972,-13.63892 127.18629,2.31223 5.49775,2.12355 7.25437,3.13608 9.31032,5.36652 1.39373,1.51202 2.84857,3.73289 3.23298,4.93528 1.7035,5.32831 4.9921,37.32155 5.66513,55.1133 0.34775,9.19298 0.25144,11.08733 -0.68887,13.5495 -1.3437,3.51841 -5.79389,7.75283 -9.12337,8.68101 -1.35436,0.37757 -18.4564,4.28555 -38.00452,8.68441 -31.38972,7.06355 -40.00687,8.69075 -40.99129,7.74053 z m 31.41333,-36.11349 27.2,-6.21905 -0.18565,-5.42503 c -0.19643,-5.73992 -1.84282,-23.31357 -2.59996,-27.75208 l -0.44914,-2.63295 -7.00357,-2.10484 c -16.66083,-5.0072 -31.16588,-6.87859 -49.21288,-6.34928 -15.49719,0.45453 -26.10873,2.13343 -39.7488,6.28884 -3.52,1.07236 -6.72853,2.28624 -7.13006,2.69751 -0.79822,0.81758 -2.60506,16.56834 -3.21895,28.06058 l -0.38714,7.24719 27.12808,6.18165 c 14.92044,3.39991 27.41607,6.19175 27.76807,6.20408 0.352,0.0123 12.88,-2.77615 27.84,-6.19662 z m 250.88,28.3239 c -19.184,-4.37084 -35.98812,-8.25632 -37.34248,-8.63441 -3.33011,-0.92963 -7.7799,-5.16412 -9.12337,-8.68195 -0.94031,-2.46217 -1.03662,-4.35652 -0.68887,-13.5495 0.67303,-17.79175 3.96163,-49.78499 5.66513,-55.1133 0.38441,-1.20239 1.83925,-3.42326 3.23298,-4.93528 2.05595,-2.23044 3.81257,-3.24297 9.31032,-5.36652 40.87582,-15.78864 85.20742,-16.72497 126.22629,-2.66604 14.2204,4.87395 16.8484,6.38448 19.23022,11.05322 2.31847,4.54458 6.19934,40.07802 6.52911,59.78077 0.14807,8.84697 0.0499,9.80704 -1.25127,12.23949 -1.5122,2.82693 -4.61235,5.76768 -7.06226,6.69914 -3.666,1.39381 -73.16602,16.85733 -76.3258,16.98223 -2.57926,0.10195 -12.84191,-1.98474 -38.4,-7.80785 z m 65.20797,-28.26034 27.76796,-6.25267 -0.38702,-7.24719 c -0.61366,-11.49101 -2.42057,-27.24295 -3.21885,-28.06058 -0.40153,-0.41127 -3.61006,-1.62515 -7.13006,-2.69751 -13.64007,-4.15541 -24.25161,-5.83431 -39.7488,-6.28884 -18.047,-0.52931 -32.55205,1.34208 -49.21288,6.34928 l -7.00357,2.10484 -0.44914,2.63295 c -0.75733,4.43963 -2.40356,22.01287 -2.59996,27.75417 l -0.18565,5.42712 26.88,6.17951 c 14.784,3.39873 27.024,6.21823 27.2,6.26555 0.176,0.0473 12.81558,-2.72766 28.08797,-6.16663 z M 332.35294,496.86712 c -1.47788,-0.5235 -3.85643,-2.12119 -5.28565,-3.55042 -5.98627,-5.98627 -5.63745,-15.82239 0.75809,-21.3773 1.17744,-1.02267 14.58641,-9.02762 29.79771,-17.78877 L 385.28,438.22125 v -33.38496 -33.38497 l 1.68645,-3.38427 c 5.35427,-10.74461 20.71283,-10.74461 26.0671,0 l 1.68645,3.38427 v 33.38497 33.38496 l 27.65691,15.92938 c 15.2113,8.76115 28.62027,16.7661 29.79771,17.78877 6.39029,5.55035 6.74404,15.39135 0.76808,21.36731 -4.14535,4.14535 -9.94251,5.57459 -15.10224,3.72332 C 456.47621,496.54055 442.904,488.93319 427.68,480.12479 L 400,464.10951 372.32,480.12479 c -15.224,8.8084 -28.79621,16.41576 -30.16046,16.90524 -3.11048,1.11601 -6.34796,1.06223 -9.8066,-0.16291 z M 233.92,466.29397 c -15.16105,-2.95503 -27.45998,-13.11033 -32.68296,-26.98652 -2.60672,-6.92541 -2.96173,-9.6832 -2.95919,-22.98745 0.003,-13.86775 0.63201,-18.21492 3.61283,-24.95508 7.25387,-16.40231 24.83653,-26.96786 42.76117,-25.69554 6.33525,0.44969 13.55322,2.60571 19.02815,5.68375 5.5497,3.12006 13.97588,12.03614 16.79069,17.76687 4.16411,8.47781 4.65077,11.33201 4.63781,27.2 -0.01,11.63435 -0.21364,14.80258 -1.17527,18.24 -3.3661,12.03249 -12.02862,22.53062 -22.85642,27.69976 -3.32025,1.58507 -7.3715,3.19682 -9.00279,3.58167 -5.02419,1.18529 -13.33203,1.39239 -18.15402,0.45254 z m 12.98056,-30.16792 c 3.00044,-1.25336 5.66684,-3.76596 7.23805,-6.82055 1.05726,-2.05543 1.22139,-3.80039 1.22139,-12.9855 0,-11.97977 -0.47969,-13.72086 -4.83339,-17.54347 -2.99861,-2.63281 -4.70203,-3.25987 -8.80827,-3.24247 -6.11222,0.0259 -11.46073,3.9052 -13.14782,9.5362 -0.40208,1.34201 -0.72771,6.57716 -0.72427,11.64399 0.006,8.34806 0.14833,9.51087 1.53113,12.48065 1.50142,3.22452 4.33875,5.97465 7.44175,7.21304 2.4192,0.9655 7.43072,0.82537 10.08143,-0.28189 z m 304.76208,30.39674 c -16.48426,-2.42846 -30.97321,-15.4386 -35.59587,-31.96279 -0.96163,-3.43742 -1.16577,-6.60565 -1.17527,-18.24 -0.013,-15.86799 0.4737,-18.72219 4.63781,-27.2 2.81481,-5.73073 11.24099,-14.64681 16.79069,-17.76687 9.06845,-5.09833 20.21597,-6.95922 30.10159,-5.02496 16.92087,3.3108 30.36931,16.22608 34.31438,32.95399 1.19742,5.0773 1.39818,28.0641 0.287,32.85953 -5.3755,23.19843 -26.3063,37.77742 -49.36033,34.3811 z m 14.24419,-31.67624 c 1.7755,-1.23067 3.34985,-3.1106 4.49317,-5.36527 1.67875,-3.31057 1.76,-3.89788 1.76,-12.72179 0,-5.08804 -0.32873,-10.34819 -0.73052,-11.68923 -1.68709,-5.631 -7.0356,-9.51031 -13.14782,-9.5362 -4.10624,-0.0174 -5.80966,0.60966 -8.80827,3.24247 -4.3537,3.82261 -4.83339,5.5637 -4.83339,17.54347 0,9.18511 0.16413,10.93007 1.22139,12.9855 2.7612,5.36807 7.24712,7.93822 13.32544,7.63464 3.17667,-0.15866 4.54224,-0.5841 6.72,-2.09359 z M 361.92,346.42458 c -19.36,-4.38993 -36.46124,-8.42539 -38.00275,-8.96767 -3.75087,-1.31952 -7.51895,-5.30143 -8.66332,-9.15497 -1.40881,-4.74397 -0.007,-28.49757 3.19083,-54.06194 2.33695,-18.68321 3.06497,-19.76244 16.71072,-24.77202 23.34159,-8.56909 40.38476,-11.62432 64.84452,-11.62432 24.45976,0 41.50293,3.05523 64.84452,11.62432 13.59194,4.98983 14.36586,6.12382 16.68798,24.45202 3.15983,24.94029 4.6198,49.64666 3.21357,54.38194 -1.14454,3.8541 -4.91305,7.83602 -8.66332,9.15392 -4.67892,1.64424 -74.39848,17.10971 -76.76035,17.02728 -1.21132,-0.0423 -18.0424,-3.66862 -37.4024,-8.05856 z m 66.88,-28.58784 25.92,-5.90331 -0.12208,-5.72672 c -0.14385,-6.74861 -2.09383,-26.91199 -2.78447,-28.79226 -0.90967,-2.47662 -20.6278,-7.62535 -35.30823,-9.21956 C 413.0871,267.8237 405.65975,267.52 400,267.52 c -5.65975,0 -13.0871,0.3037 -16.50522,0.67489 -14.68043,1.59421 -34.39856,6.74294 -35.30823,9.21956 -0.69093,1.88106 -2.64066,22.0451 -2.78447,28.79679 l -0.12208,5.73123 27.2,6.1996 c 14.96,3.40978 27.92,6.06423 28.8,5.89879 0.88,-0.16545 13.264,-2.9573 27.52,-6.20412 z M 393.94287,231.6377 c -9.85005,-1.51198 -17.39082,-5.39979 -24.67117,-12.71975 -6.23345,-6.26738 -9.42933,-11.8565 -11.51631,-20.14033 -1.63384,-6.48516 -1.81687,-26.8324 -0.30563,-33.97762 1.98329,-9.37715 8.44755,-19.58979 15.85486,-25.04849 11.21131,-8.262 23.92126,-10.99837 36.77361,-7.91713 12.9901,3.11426 23.10885,11.26059 29.02301,23.36562 3.63864,7.44755 4.3946,11.95788 4.40765,26.29762 0.0128,14.08795 -0.88587,19.02971 -4.93598,27.14238 -3.56201,7.13496 -11.48045,14.93967 -18.73291,18.46383 -2.992,1.4539 -7.04316,3.04879 -9.00258,3.5442 -4.95028,1.25162 -12.36023,1.68569 -16.89455,0.98967 z M 405.44,201.04598 c 3.40535,-1.55092 7.16037,-5.80826 7.80384,-8.84779 0.28389,-1.34101 0.50405,-6.80037 0.48924,-12.13192 -0.0267,-9.6219 -0.0411,-9.71663 -1.93692,-12.78308 -5.65997,-9.1548 -17.93235,-9.1548 -23.59232,0 -1.89584,3.06645 -1.9102,3.16118 -1.93692,12.78308 -0.033,11.87629 0.35317,13.84667 3.36924,17.19195 2.89233,3.20802 6.54449,4.95367 10.36384,4.95367 1.584,0 4.032,-0.52466 5.44,-1.16591 z"
         id="path2" />
    </g>
  </g>
</svg>
